<?xml version="1.0" encoding="UTF-8" standalone="no"?> <svg id="Flat" xmlns="http://www.w3.org/2000/svg" viewBox="0 0 512 512"><title>alcohol-gel-cream-shower-Cleaning</title><polygon points="264 48 320 48 352 64 344 88 320 80 264 80 264 48" style="fill:#e4e4e3"/><path d="M232,128V48a24,24,0,0,1,24-24h0a24,24,0,0,1,24,24v80Z" style="fill:#cacac9"/><rect x="216" y="112" width="80" height="72" style="fill:#e4e4e3"/><path d="M328,488H184a32,32,0,0,1-32-32V224a64,64,0,0,1,64-64h80a64,64,0,0,1,64,64V456A32,32,0,0,1,328,488Z" style="fill:#0093b9"/><path d="M184,472a16.019,16.019,0,0,1-16-16V224a48.055,48.055,0,0,1,48-48h80a48.055,48.055,0,0,1,48,48V456a16.019,16.019,0,0,1-16,16Z" style="fill:#2da4c4"/><path d="M200,240h72a40,40,0,0,1,40,40V440a0,0,0,0,1,0,0H200a0,0,0,0,1,0,0V240A0,0,0,0,1,200,240Z" style="fill:#e4e4e3"/><path d="M256,336a32,32,0,1,1,32-32A32.036,32.036,0,0,1,256,336Zm0-48a16,16,0,1,0,16,16A16.019,16.019,0,0,0,256,288Z" style="fill:#b3b1b3"/><rect x="248" y="352" width="16" height="16" style="fill:#b3b1b3"/><rect x="232" y="384" width="48" height="16" style="fill:#b3b1b3"/></svg>